<?xml version="1.0" encoding="UTF-8" standalone="no"?>
<!-- Created with Inkscape (http://www.inkscape.org/) -->

<svg
   xmlns:dc="http://purl.org/dc/elements/1.1/"
   xmlns:cc="http://creativecommons.org/ns#"
   xmlns:rdf="http://www.w3.org/1999/02/22-rdf-syntax-ns#"
   xmlns:svg="http://www.w3.org/2000/svg"
   xmlns="http://www.w3.org/2000/svg"
   xmlns:xlink="http://www.w3.org/1999/xlink"
   xmlns:sodipodi="http://sodipodi.sourceforge.net/DTD/sodipodi-0.dtd"
   xmlns:inkscape="http://www.inkscape.org/namespaces/inkscape"
   width="58"
   height="58"
   id="svg7601"
   version="1.1"
   inkscape:version="0.48.2 r9819"
   sodipodi:docname="abuledu-minitexte.svg"
   inkscape:export-filename="/tmp/abuledu-ecrivonsensemble-32.png"
   inkscape:export-xdpi="49.66"
   inkscape:export-ydpi="49.66">
  <defs
     id="defs7603">
    <linearGradient
       id="linearGradient7982-1-4-8-0-2"
       inkscape:collect="always">
      <stop
         id="stop7984-6-4-4-8-3"
         offset="0"
         style="stop-color:#255234;stop-opacity:1;" />
      <stop
         id="stop7986-3-6-3-8-3"
         offset="1"
         style="stop-color:#255234;stop-opacity:0;" />
    </linearGradient>
    <linearGradient
       id="linearGradient8648-8-1-1-7-1"
       inkscape:collect="always">
      <stop
         id="stop8650-2-5-3-8-5"
         offset="0"
         style="stop-color:#dfdfdf;stop-opacity:0" />
      <stop
         id="stop8652-8-2-8-0-4"
         offset="1"
         style="stop-color:#ffffff;stop-opacity:1" />
    </linearGradient>
    <linearGradient
       inkscape:collect="always"
       id="linearGradient8311-8-9-4">
      <stop
         style="stop-color:#cdc6c6;stop-opacity:1"
         offset="0"
         id="stop8313-1-8-5" />
      <stop
         style="stop-color:#fffff9;stop-opacity:1"
         offset="1"
         id="stop8315-6-8-4" />
    </linearGradient>
    <linearGradient
       inkscape:collect="always"
       xlink:href="#linearGradient7982-1-4-8-0-2"
       id="linearGradient7735"
       gradientUnits="userSpaceOnUse"
       gradientTransform="translate(-274.42445,-144.79494)"
       x1="-2991.7832"
       y1="2749.9731"
       x2="-2945.6536"
       y2="2569.0784" />
    <linearGradient
       inkscape:collect="always"
       xlink:href="#linearGradient8648-8-1-1-7-1"
       id="linearGradient7737"
       gradientUnits="userSpaceOnUse"
       gradientTransform="matrix(0.99996682,-0.00814664,0.00814664,0.99996682,-602.01865,-532.76034)"
       x1="-2707.9053"
       y1="3059.1936"
       x2="-2635.8401"
       y2="2960.8062" />
    <linearGradient
       inkscape:collect="always"
       xlink:href="#linearGradient7982-1-4-8-0-2"
       id="linearGradient7759"
       gradientUnits="userSpaceOnUse"
       gradientTransform="translate(-274.42445,-144.79494)"
       x1="-2991.7832"
       y1="2749.9731"
       x2="-2945.6536"
       y2="2569.0784" />
    <linearGradient
       inkscape:collect="always"
       xlink:href="#linearGradient8648-8-1-1-7-1"
       id="linearGradient7761"
       gradientUnits="userSpaceOnUse"
       gradientTransform="matrix(0.99996682,-0.00814664,0.00814664,0.99996682,-602.01865,-532.76034)"
       x1="-2707.9053"
       y1="3059.1936"
       x2="-2635.8401"
       y2="2960.8062" />
    <linearGradient
       inkscape:collect="always"
       xlink:href="#linearGradient7982-1-4-8-0-2"
       id="linearGradient7783"
       gradientUnits="userSpaceOnUse"
       gradientTransform="translate(-274.42445,-144.79494)"
       x1="-2991.7832"
       y1="2749.9731"
       x2="-2945.6536"
       y2="2569.0784" />
    <linearGradient
       inkscape:collect="always"
       xlink:href="#linearGradient8648-8-1-1-7-1"
       id="linearGradient7785"
       gradientUnits="userSpaceOnUse"
       gradientTransform="matrix(0.99996682,-0.00814664,0.00814664,0.99996682,-602.01865,-532.76034)"
       x1="-2707.9053"
       y1="3059.1936"
       x2="-2635.8401"
       y2="2960.8062" />
    <linearGradient
       inkscape:collect="always"
       xlink:href="#linearGradient8311-8-9-4"
       id="linearGradient7809"
       gradientUnits="userSpaceOnUse"
       gradientTransform="matrix(0.22916415,0,0,0.22916415,417.0933,329.20278)"
       x1="-616.71075"
       y1="1103.2548"
       x2="-615.38098"
       y2="1004.0453" />
    <linearGradient
       inkscape:collect="always"
       xlink:href="#linearGradient8311-8-9-4"
       id="linearGradient7872"
       gradientUnits="userSpaceOnUse"
       gradientTransform="matrix(0.22916415,0,0,0.22916415,417.0933,329.20278)"
       x1="-616.71075"
       y1="1103.2548"
       x2="-615.38098"
       y2="1004.0453" />
    <linearGradient
       inkscape:collect="always"
       xlink:href="#linearGradient7982-1-4-8-0-2"
       id="linearGradient7874"
       gradientUnits="userSpaceOnUse"
       gradientTransform="translate(-274.42445,-144.79494)"
       x1="-2991.7832"
       y1="2749.9731"
       x2="-2945.6536"
       y2="2569.0784" />
    <linearGradient
       inkscape:collect="always"
       xlink:href="#linearGradient8648-8-1-1-7-1"
       id="linearGradient7876"
       gradientUnits="userSpaceOnUse"
       gradientTransform="matrix(0.99996682,-0.00814664,0.00814664,0.99996682,-602.01865,-532.76034)"
       x1="-2707.9053"
       y1="3059.1936"
       x2="-2635.8401"
       y2="2960.8062" />
    <linearGradient
       inkscape:collect="always"
       xlink:href="#linearGradient7982-1-4-8-0-2"
       id="linearGradient7878"
       gradientUnits="userSpaceOnUse"
       gradientTransform="translate(-274.42445,-144.79494)"
       x1="-2991.7832"
       y1="2749.9731"
       x2="-2945.6536"
       y2="2569.0784" />
    <linearGradient
       inkscape:collect="always"
       xlink:href="#linearGradient8648-8-1-1-7-1"
       id="linearGradient7880"
       gradientUnits="userSpaceOnUse"
       gradientTransform="matrix(0.99996682,-0.00814664,0.00814664,0.99996682,-602.01865,-532.76034)"
       x1="-2707.9053"
       y1="3059.1936"
       x2="-2635.8401"
       y2="2960.8062" />
    <linearGradient
       inkscape:collect="always"
       xlink:href="#linearGradient7982-1-4-8-0-2"
       id="linearGradient7882"
       gradientUnits="userSpaceOnUse"
       gradientTransform="translate(-274.42445,-144.79494)"
       x1="-2991.7832"
       y1="2749.9731"
       x2="-2945.6536"
       y2="2569.0784" />
    <linearGradient
       inkscape:collect="always"
       xlink:href="#linearGradient8648-8-1-1-7-1"
       id="linearGradient7884"
       gradientUnits="userSpaceOnUse"
       gradientTransform="matrix(0.99996682,-0.00814664,0.00814664,0.99996682,-602.01865,-532.76034)"
       x1="-2707.9053"
       y1="3059.1936"
       x2="-2635.8401"
       y2="2960.8062" />
    <linearGradient
       inkscape:collect="always"
       xlink:href="#linearGradient8311-8-9-4"
       id="linearGradient3046"
       gradientUnits="userSpaceOnUse"
       gradientTransform="matrix(0.22916415,0,0,0.22916415,417.0933,329.20278)"
       x1="-616.71075"
       y1="1103.2548"
       x2="-615.38098"
       y2="1004.0453" />
    <linearGradient
       inkscape:collect="always"
       xlink:href="#linearGradient8311-8-9-4"
       id="linearGradient3056"
       gradientUnits="userSpaceOnUse"
       gradientTransform="matrix(0.30860796,0,0,0.30860796,470.63967,240.73578)"
       x1="-616.71075"
       y1="1103.2548"
       x2="-615.38098"
       y2="1004.0453" />
  </defs>
  <sodipodi:namedview
     id="base"
     pagecolor="#ffffff"
     bordercolor="#666666"
     borderopacity="1.0"
     inkscape:pageopacity="0.0"
     inkscape:pageshadow="2"
     inkscape:zoom="11.2"
     inkscape:cx="70.899988"
     inkscape:cy="24.781134"
     inkscape:document-units="px"
     inkscape:current-layer="layer1"
     showgrid="false"
     inkscape:window-width="1920"
     inkscape:window-height="997"
     inkscape:window-x="0"
     inkscape:window-y="33"
     inkscape:window-maximized="1"
     fit-margin-top="0"
     fit-margin-left="0"
     fit-margin-right="0"
     fit-margin-bottom="0" />
  <metadata
     id="metadata7606">
    <rdf:RDF>
      <cc:Work
         rdf:about="">
        <dc:format>image/svg+xml</dc:format>
        <dc:type
           rdf:resource="http://purl.org/dc/dcmitype/StillImage" />
        <dc:title />
      </cc:Work>
    </rdf:RDF>
  </metadata>
  <g
     inkscape:label="Calque 1"
     inkscape:groupmode="layer"
     id="layer1"
     transform="translate(-254.6145,-527.19545)">
    <g
       id="g3070">
      <g
         id="g3059">
        <path
           sodipodi:nodetypes="ccccc"
           id="path7491"
           d="m 299.59874,547.04091 c 0.79826,17.12918 0.12214,34.72548 0.12214,34.72548 l -31.41011,0.27264 c 0,0 -1.45366,-23.0035 -0.86871,-44.49258 0,0 23.83696,-2.36298 24.22935,2.31645"
           style="fill:#164450;fill-opacity:1;stroke:none;display:inline"
           inkscape:connector-curvature="0" />
        <path
           sodipodi:nodetypes="ccccc"
           id="path7493"
           d="m 298.10038,547.17637 c 0.72591,15.88544 0.24886,33.51517 0.24886,33.51517 l -28.67011,-0.21524 c 0,0 -0.86282,-21.09913 -0.33089,-41.02793 0,0 16.03572,-2.06526 19.74261,0.471"
           style="fill:url(#linearGradient3056);fill-opacity:1;stroke:none;display:inline"
           inkscape:connector-curvature="0" />
        <path
           sodipodi:nodetypes="ccsccc"
           id="path7495"
           d="m 287.84462,539.54885 c 1.627,3.924 1.45705,6.71852 0.0175,10.19195 -0.21548,0.26941 9.44864,-1.57358 10.32971,-1.85915 0.66605,-0.21585 -0.008,-0.68951 -0.98634,-2.27604 -1.83168,-2.26269 -7.63691,-7.08039 -9.36081,-6.05676 l 3e-5,0 z"
           style="opacity:0.50362321;fill:#9f9f9a;fill-opacity:1;stroke:none;display:inline"
           inkscape:connector-curvature="0" />
        <path
           sodipodi:nodetypes="csssccscc"
           id="path7497"
           d="m 288.82678,538.57068 c 0,0 1.69836,1.32664 2.39619,3.69111 0.0143,0.0481 0.0279,0.0964 0.0412,0.14534 0.003,0.008 0.004,0.016 0.007,0.0237 0.3214,1.19477 0.38199,2.64224 -0.1458,4.30741 0,0 4.08318,-1.45703 7.31824,-0.70834 0,0 -0.70146,-2.53289 -3.97424,-4.85064 -1.37814,-0.97601 -3.21226,-1.91383 -5.64198,-2.60836 l -10e-5,0 z"
           style="fill:#e1e1dc;fill-opacity:1;stroke:#164450;stroke-width:1.68012643;stroke-miterlimit:4;stroke-opacity:1;stroke-dasharray:none;display:inline"
           inkscape:connector-curvature="0" />
        <path
           id="path7499"
           d="m 273.20265,554.36268 20.21819,0"
           style="fill:#164450;stroke:#164450;stroke-width:0.92582387000000022;stroke-linecap:butt;stroke-linejoin:miter;stroke-miterlimit:4;stroke-opacity:1;stroke-dasharray:7.40659085999999878, 0.92582385000000000;stroke-dashoffset:0;display:inline;fill-opacity:1"
           inkscape:connector-curvature="0" />
        <path
           id="path7501"
           d="m 273.29749,558.4057 20.21823,0"
           style="fill:#164450;stroke:#164450;stroke-width:0.92582387000000022;stroke-linecap:butt;stroke-linejoin:miter;stroke-miterlimit:4;stroke-opacity:1;stroke-dasharray:7.40659085999999878, 0.92582385000000000;stroke-dashoffset:0;display:inline;fill-opacity:1"
           inkscape:connector-curvature="0" />
        <path
           id="path7503"
           d="m 273.32546,562.54383 20.2182,0"
           style="fill:#164450;stroke:#164450;stroke-width:0.92582387000000022;stroke-linecap:butt;stroke-linejoin:miter;stroke-miterlimit:4;stroke-opacity:1;stroke-dasharray:7.40659085999999878, 0.92582385000000000;stroke-dashoffset:0;display:inline;fill-opacity:1"
           inkscape:connector-curvature="0" />
        <path
           id="path7505"
           d="m 273.4667,566.72599 20.21822,0"
           style="fill:#164450;stroke:#164450;stroke-width:0.92582387000000022;stroke-linecap:butt;stroke-linejoin:miter;stroke-miterlimit:4;stroke-opacity:1;stroke-dasharray:7.40659085999999878, 0.92582385000000000;stroke-dashoffset:0;display:inline;fill-opacity:1"
           inkscape:connector-curvature="0" />
        <path
           id="path7507"
           d="m 273.51909,570.99689 20.21821,0"
           style="fill:#164450;stroke:#164450;stroke-width:0.92582387000000022;stroke-linecap:butt;stroke-linejoin:miter;stroke-miterlimit:4;stroke-opacity:1;stroke-dasharray:7.40659085999999878, 0.92582385000000000;stroke-dashoffset:0;display:inline;fill-opacity:1"
           inkscape:connector-curvature="0" />
      </g>
      <g
         id="g7521"
         transform="matrix(0.96542408,0.12278555,0.12692428,0.93161083,665.49391,185.00008)"
         inkscape:export-filename="/home/utilisateurs/arnaud.perat/Bureau/path7968-6-3-6-1-0-4.png"
         inkscape:export-xdpi="481.22095"
         inkscape:export-ydpi="481.22095">
        <g
           transform="matrix(0.12705997,0,0,0.12705997,-30.41491,129.66451)"
           id="g7523">
          <path
             inkscape:connector-curvature="0"
             style="fill:#164450;fill-opacity:1;stroke:none;display:inline"
             d="m -3197.6465,2425.4884 c -2.9626,-0.057 -5.8247,0.8867 -8.5464,3.279 l -6.8289,8.445 c -2.968,0.052 -4.5379,0.9837 -4.5381,0.9837 -41.7147,51.0131 -84.2187,98.8318 -109.0509,133.1336 -8.927,12.9752 -17.012,28.3425 -20.4491,42.0362 l -0.099,0.1311 -0.099,0.7215 -4.4278,22.0942 c -0.6941,2.1072 -1.1678,9.498 3.3127,8.2632 9.1592,-2.0865 14.9975,-6.5284 22.1281,-12.4605 0,0 36.7716,-29.2267 50.8154,-44.3539 34.7553,-37.4368 98.0446,-123.7378 98.0446,-123.7378 0,0 5.0554,-5.9722 4.5359,-8.5679 2.4327,-12.6821 -1.7004,-17.1799 -10.9603,-24.7859 -5.1652,-3.2967 -8.8989,-5.0877 -13.8363,-5.1815 z"
             id="path7525"
             sodipodi:nodetypes="cccccccccccsccccc" />
          <path
             style="fill:#11343d;fill-opacity:1;stroke:none;display:inline"
             d="m -3213.0683,2447.0743 11.3555,-12.9218 c 0,0 4.6988,-2.741 14.8796,5.482 10.1808,8.2229 7.0483,13.7049 4.6988,17.229 -2.3494,3.5242 -11.747,14.8797 -11.747,14.8797 z"
             id="path7527"
             inkscape:connector-curvature="0" />
          <path
             style="fill:#66979b;fill-opacity:1;stroke:none;display:inline"
             d="m -3342.6939,2625.0817 c 0,0 -2.3858,6.7428 -1.6514,7.2318 1.0156,0.6761 6.4482,-4.2167 6.4482,-4.2167 z"
             id="path7529"
             inkscape:connector-curvature="0"
             sodipodi:nodetypes="cscc" />
          <path
             style="fill:#11343d;fill-opacity:1;stroke:none;display:inline"
             d="m -3336.1155,2606.1689 -8.0859,19.7351 6.0302,4.1114 18.2275,-13.1567 z"
             id="path7531"
             inkscape:connector-curvature="0" />
          <path
             style="fill:#bcb7b6;fill-opacity:1;stroke:none;display:inline"
             d="m -3215.0236,2445.3505 c -39.3527,48.6171 -79.023,97.5519 -102.4491,130.2425 -9.3798,13.0893 -17.3061,24.7251 -19.7988,30.9274 l 15.8977,12.8826 c 0,0 28.5439,-26.8582 41.7923,-41.2748 32.7872,-35.6785 93.0641,-111.6721 93.0641,-111.6721 0,0 3.0151,-7.1266 -9.3193,-16.1718 -12.3345,-9.0453 -19.1869,-4.9338 -19.1869,-4.9338 z"
             id="path7533"
             inkscape:connector-curvature="0"
             sodipodi:nodetypes="csccacsc" />
          <path
             inkscape:connector-curvature="0"
             style="opacity:0.55795144;fill:url(#linearGradient7874);fill-opacity:1;stroke:none;display:inline"
             d="m -3185.8293,2437.1676 c 0,0 -4.6602,16.6437 -22.6354,30.6244 -14.5297,11.3009 -86.9129,106.9896 -120.105,145.7184 0.037,1.201 2.9208,2.3862 3.8673,3.3068 1.2839,1.2486 1.8036,2.412 3.4517,2.8465 9.3334,-5.618 76.17,-77.9739 76.17,-77.9739 l 63.9116,-77.2266 4.6602,-24.6326 -9.3204,-2.663 z"
             id="path7535"
             sodipodi:nodetypes="cscsccccc" />
          <path
             inkscape:connector-curvature="0"
             style="fill:url(#linearGradient7876);fill-opacity:1;stroke:none;display:inline"
             d="m -3212.6274,2448.4629 c -3.8173,2.3553 -32.6679,35.1031 -52.2088,63.5085 -19.5409,28.4053 56.0925,-50.0474 57.4434,-57.5907 1.3508,-7.5434 -1.3386,-8.3215 -5.2346,-5.9178 z"
             id="path7537"
             sodipodi:nodetypes="cssz" />
          <path
             inkscape:connector-curvature="0"
             style="fill:#f5f8f8;fill-opacity:1;stroke:none;display:inline"
             d="m -3206.2067,2444.1835 c 0,0 6.512,-8.7662 9.5176,-8.5157 3.0055,0.2504 -0.2505,10.5194 -9.5176,8.5157 z"
             id="path7539" />
        </g>
      </g>
    </g>
  </g>
</svg>
